<?xml version="1.0" encoding="utf-8"?>
<svg viewBox="196.928 317.08 339.101 59.194" xmlns="http://www.w3.org/2000/svg">
  <path d="M8,8l2,0 0,2 -2,0 0,-2z M10,8l2,0 0,2 -2,0 0,-2z M12,8l2,0 0,2 -2,0 0,-2z M14,8l2,0 0,2 -2,0 0,-2z M16,8l2,0 0,2 -2,0 0,-2z M18,8l2,0 0,2 -2,0 0,-2z M20,8l2,0 0,2 -2,0 0,-2z M24,8l2,0 0,2 -2,0 0,-2z M30,8l2,0 0,2 -2,0 0,-2z M32,8l2,0 0,2 -2,0 0,-2z M36,8l2,0 0,2 -2,0 0,-2z M40,8l2,0 0,2 -2,0 0,-2z M44,8l2,0 0,2 -2,0 0,-2z M46,8l2,0 0,2 -2,0 0,-2z M48,8l2,0 0,2 -2,0 0,-2z M50,8l2,0 0,2 -2,0 0,-2z M52,8l2,0 0,2 -2,0 0,-2z M54,8l2,0 0,2 -2,0 0,-2z M56,8l2,0 0,2 -2,0 0,-2z M8,10l2,0 0,2 -2,0 0,-2z M20,10l2,0 0,2 -2,0 0,-2z M26,10l2,0 0,2 -2,0 0,-2z M28,10l2,0 0,2 -2,0 0,-2z M40,10l2,0 0,2 -2,0 0,-2z M44,10l2,0 0,2 -2,0 0,-2z M56,10l2,0 0,2 -2,0 0,-2z M8,12l2,0 0,2 -2,0 0,-2z M12,12l2,0 0,2 -2,0 0,-2z M14,12l2,0 0,2 -2,0 0,-2z M16,12l2,0 0,2 -2,0 0,-2z M20,12l2,0 0,2 -2,0 0,-2z M28,12l2,0 0,2 -2,0 0,-2z M32,12l2,0 0,2 -2,0 0,-2z M34,12l2,0 0,2 -2,0 0,-2z M38,12l2,0 0,2 -2,0 0,-2z M40,12l2,0 0,2 -2,0 0,-2z M44,12l2,0 0,2 -2,0 0,-2z M48,12l2,0 0,2 -2,0 0,-2z M50,12l2,0 0,2 -2,0 0,-2z M52,12l2,0 0,2 -2,0 0,-2z M56,12l2,0 0,2 -2,0 0,-2z M8,14l2,0 0,2 -2,0 0,-2z M12,14l2,0 0,2 -2,0 0,-2z M14,14l2,0 0,2 -2,0 0,-2z M16,14l2,0 0,2 -2,0 0,-2z M20,14l2,0 0,2 -2,0 0,-2z M32,14l2,0 0,2 -2,0 0,-2z M34,14l2,0 0,2 -2,0 0,-2z M40,14l2,0 0,2 -2,0 0,-2z M44,14l2,0 0,2 -2,0 0,-2z M48,14l2,0 0,2 -2,0 0,-2z M50,14l2,0 0,2 -2,0 0,-2z M52,14l2,0 0,2 -2,0 0,-2z M56,14l2,0 0,2 -2,0 0,-2z M8,16l2,0 0,2 -2,0 0,-2z M12,16l2,0 0,2 -2,0 0,-2z M14,16l2,0 0,2 -2,0 0,-2z M16,16l2,0 0,2 -2,0 0,-2z M20,16l2,0 0,2 -2,0 0,-2z M26,16l2,0 0,2 -2,0 0,-2z M30,16l2,0 0,2 -2,0 0,-2z M36,16l2,0 0,2 -2,0 0,-2z M40,16l2,0 0,2 -2,0 0,-2z M44,16l2,0 0,2 -2,0 0,-2z M48,16l2,0 0,2 -2,0 0,-2z M50,16l2,0 0,2 -2,0 0,-2z M52,16l2,0 0,2 -2,0 0,-2z M56,16l2,0 0,2 -2,0 0,-2z M8,18l2,0 0,2 -2,0 0,-2z M20,18l2,0 0,2 -2,0 0,-2z M28,18l2,0 0,2 -2,0 0,-2z M32,18l2,0 0,2 -2,0 0,-2z M34,18l2,0 0,2 -2,0 0,-2z M36,18l2,0 0,2 -2,0 0,-2z M40,18l2,0 0,2 -2,0 0,-2z M44,18l2,0 0,2 -2,0 0,-2z M56,18l2,0 0,2 -2,0 0,-2z M8,20l2,0 0,2 -2,0 0,-2z M10,20l2,0 0,2 -2,0 0,-2z M12,20l2,0 0,2 -2,0 0,-2z M14,20l2,0 0,2 -2,0 0,-2z M16,20l2,0 0,2 -2,0 0,-2z M18,20l2,0 0,2 -2,0 0,-2z M20,20l2,0 0,2 -2,0 0,-2z M24,20l2,0 0,2 -2,0 0,-2z M28,20l2,0 0,2 -2,0 0,-2z M32,20l2,0 0,2 -2,0 0,-2z M36,20l2,0 0,2 -2,0 0,-2z M40,20l2,0 0,2 -2,0 0,-2z M44,20l2,0 0,2 -2,0 0,-2z M46,20l2,0 0,2 -2,0 0,-2z M48,20l2,0 0,2 -2,0 0,-2z M50,20l2,0 0,2 -2,0 0,-2z M52,20l2,0 0,2 -2,0 0,-2z M54,20l2,0 0,2 -2,0 0,-2z M56,20l2,0 0,2 -2,0 0,-2z M24,22l2,0 0,2 -2,0 0,-2z M28,22l2,0 0,2 -2,0 0,-2z M30,22l2,0 0,2 -2,0 0,-2z M34,22l2,0 0,2 -2,0 0,-2z M8,24l2,0 0,2 -2,0 0,-2z M10,24l2,0 0,2 -2,0 0,-2z M14,24l2,0 0,2 -2,0 0,-2z M16,24l2,0 0,2 -2,0 0,-2z M20,24l2,0 0,2 -2,0 0,-2z M26,24l2,0 0,2 -2,0 0,-2z M28,24l2,0 0,2 -2,0 0,-2z M30,24l2,0 0,2 -2,0 0,-2z M32,24l2,0 0,2 -2,0 0,-2z M36,24l2,0 0,2 -2,0 0,-2z M40,24l2,0 0,2 -2,0 0,-2z M44,24l2,0 0,2 -2,0 0,-2z M56,24l2,0 0,2 -2,0 0,-2z M10,26l2,0 0,2 -2,0 0,-2z M18,26l2,0 0,2 -2,0 0,-2z M22,26l2,0 0,2 -2,0 0,-2z M24,26l2,0 0,2 -2,0 0,-2z M26,26l2,0 0,2 -2,0 0,-2z M32,26l2,0 0,2 -2,0 0,-2z M34,26l2,0 0,2 -2,0 0,-2z M36,26l2,0 0,2 -2,0 0,-2z M38,26l2,0 0,2 -2,0 0,-2z M46,26l2,0 0,2 -2,0 0,-2z M48,26l2,0 0,2 -2,0 0,-2z M50,26l2,0 0,2 -2,0 0,-2z M52,26l2,0 0,2 -2,0 0,-2z M54,26l2,0 0,2 -2,0 0,-2z M8,28l2,0 0,2 -2,0 0,-2z M10,28l2,0 0,2 -2,0 0,-2z M18,28l2,0 0,2 -2,0 0,-2z M20,28l2,0 0,2 -2,0 0,-2z M28,28l2,0 0,2 -2,0 0,-2z M30,28l2,0 0,2 -2,0 0,-2z M36,28l2,0 0,2 -2,0 0,-2z M38,28l2,0 0,2 -2,0 0,-2z M40,28l2,0 0,2 -2,0 0,-2z M42,28l2,0 0,2 -2,0 0,-2z M48,28l2,0 0,2 -2,0 0,-2z M50,28l2,0 0,2 -2,0 0,-2z M56,28l2,0 0,2 -2,0 0,-2z M10,30l2,0 0,2 -2,0 0,-2z M14,30l2,0 0,2 -2,0 0,-2z M22,30l2,0 0,2 -2,0 0,-2z M24,30l2,0 0,2 -2,0 0,-2z M26,30l2,0 0,2 -2,0 0,-2z M28,30l2,0 0,2 -2,0 0,-2z M36,30l2,0 0,2 -2,0 0,-2z M38,30l2,0 0,2 -2,0 0,-2z M40,30l2,0 0,2 -2,0 0,-2z M44,30l2,0 0,2 -2,0 0,-2z M50,30l2,0 0,2 -2,0 0,-2z M52,30l2,0 0,2 -2,0 0,-2z M54,30l2,0 0,2 -2,0 0,-2z M56,30l2,0 0,2 -2,0 0,-2z M10,32l2,0 0,2 -2,0 0,-2z M12,32l2,0 0,2 -2,0 0,-2z M16,32l2,0 0,2 -2,0 0,-2z M18,32l2,0 0,2 -2,0 0,-2z M20,32l2,0 0,2 -2,0 0,-2z M24,32l2,0 0,2 -2,0 0,-2z M26,32l2,0 0,2 -2,0 0,-2z M32,32l2,0 0,2 -2,0 0,-2z M38,32l2,0 0,2 -2,0 0,-2z M40,32l2,0 0,2 -2,0 0,-2z M44,32l2,0 0,2 -2,0 0,-2z M56,32l2,0 0,2 -2,0 0,-2z M8,34l2,0 0,2 -2,0 0,-2z M14,34l2,0 0,2 -2,0 0,-2z M26,34l2,0 0,2 -2,0 0,-2z M30,34l2,0 0,2 -2,0 0,-2z M34,34l2,0 0,2 -2,0 0,-2z M38,34l2,0 0,2 -2,0 0,-2z M40,34l2,0 0,2 -2,0 0,-2z M48,34l2,0 0,2 -2,0 0,-2z M54,34l2,0 0,2 -2,0 0,-2z M8,36l2,0 0,2 -2,0 0,-2z M10,36l2,0 0,2 -2,0 0,-2z M16,36l2,0 0,2 -2,0 0,-2z M18,36l2,0 0,2 -2,0 0,-2z M20,36l2,0 0,2 -2,0 0,-2z M24,36l2,0 0,2 -2,0 0,-2z M26,36l2,0 0,2 -2,0 0,-2z M34,36l2,0 0,2 -2,0 0,-2z M36,36l2,0 0,2 -2,0 0,-2z M38,36l2,0 0,2 -2,0 0,-2z M42,36l2,0 0,2 -2,0 0,-2z M44,36l2,0 0,2 -2,0 0,-2z M48,36l2,0 0,2 -2,0 0,-2z M50,36l2,0 0,2 -2,0 0,-2z M52,36l2,0 0,2 -2,0 0,-2z M54,36l2,0 0,2 -2,0 0,-2z M56,36l2,0 0,2 -2,0 0,-2z M8,38l2,0 0,2 -2,0 0,-2z M12,38l2,0 0,2 -2,0 0,-2z M16,38l2,0 0,2 -2,0 0,-2z M18,38l2,0 0,2 -2,0 0,-2z M24,38l2,0 0,2 -2,0 0,-2z M26,38l2,0 0,2 -2,0 0,-2z M32,38l2,0 0,2 -2,0 0,-2z M36,38l2,0 0,2 -2,0 0,-2z M42,38l2,0 0,2 -2,0 0,-2z M44,38l2,0 0,2 -2,0 0,-2z M46,38l2,0 0,2 -2,0 0,-2z M50,38l2,0 0,2 -2,0 0,-2z M52,38l2,0 0,2 -2,0 0,-2z M56,38l2,0 0,2 -2,0 0,-2z M8,40l2,0 0,2 -2,0 0,-2z M16,40l2,0 0,2 -2,0 0,-2z M20,40l2,0 0,2 -2,0 0,-2z M22,40l2,0 0,2 -2,0 0,-2z M26,40l2,0 0,2 -2,0 0,-2z M28,40l2,0 0,2 -2,0 0,-2z M32,40l2,0 0,2 -2,0 0,-2z M34,40l2,0 0,2 -2,0 0,-2z M38,40l2,0 0,2 -2,0 0,-2z M40,40l2,0 0,2 -2,0 0,-2z M42,40l2,0 0,2 -2,0 0,-2z M44,40l2,0 0,2 -2,0 0,-2z M46,40l2,0 0,2 -2,0 0,-2z M48,40l2,0 0,2 -2,0 0,-2z M52,40l2,0 0,2 -2,0 0,-2z M54,40l2,0 0,2 -2,0 0,-2z M24,42l2,0 0,2 -2,0 0,-2z M26,42l2,0 0,2 -2,0 0,-2z M34,42l2,0 0,2 -2,0 0,-2z M38,42l2,0 0,2 -2,0 0,-2z M40,42l2,0 0,2 -2,0 0,-2z M48,42l2,0 0,2 -2,0 0,-2z M52,42l2,0 0,2 -2,0 0,-2z M54,42l2,0 0,2 -2,0 0,-2z M8,44l2,0 0,2 -2,0 0,-2z M10,44l2,0 0,2 -2,0 0,-2z M12,44l2,0 0,2 -2,0 0,-2z M14,44l2,0 0,2 -2,0 0,-2z M16,44l2,0 0,2 -2,0 0,-2z M18,44l2,0 0,2 -2,0 0,-2z M20,44l2,0 0,2 -2,0 0,-2z M26,44l2,0 0,2 -2,0 0,-2z M28,44l2,0 0,2 -2,0 0,-2z M30,44l2,0 0,2 -2,0 0,-2z M32,44l2,0 0,2 -2,0 0,-2z M34,44l2,0 0,2 -2,0 0,-2z M36,44l2,0 0,2 -2,0 0,-2z M40,44l2,0 0,2 -2,0 0,-2z M44,44l2,0 0,2 -2,0 0,-2z M48,44l2,0 0,2 -2,0 0,-2z M56,44l2,0 0,2 -2,0 0,-2z M8,46l2,0 0,2 -2,0 0,-2z M20,46l2,0 0,2 -2,0 0,-2z M26,46l2,0 0,2 -2,0 0,-2z M28,46l2,0 0,2 -2,0 0,-2z M30,46l2,0 0,2 -2,0 0,-2z M34,46l2,0 0,2 -2,0 0,-2z M36,46l2,0 0,2 -2,0 0,-2z M38,46l2,0 0,2 -2,0 0,-2z M40,46l2,0 0,2 -2,0 0,-2z M48,46l2,0 0,2 -2,0 0,-2z M54,46l2,0 0,2 -2,0 0,-2z M8,48l2,0 0,2 -2,0 0,-2z M12,48l2,0 0,2 -2,0 0,-2z M14,48l2,0 0,2 -2,0 0,-2z M16,48l2,0 0,2 -2,0 0,-2z M20,48l2,0 0,2 -2,0 0,-2z M24,48l2,0 0,2 -2,0 0,-2z M26,48l2,0 0,2 -2,0 0,-2z M30,48l2,0 0,2 -2,0 0,-2z M32,48l2,0 0,2 -2,0 0,-2z M36,48l2,0 0,2 -2,0 0,-2z M38,48l2,0 0,2 -2,0 0,-2z M40,48l2,0 0,2 -2,0 0,-2z M42,48l2,0 0,2 -2,0 0,-2z M44,48l2,0 0,2 -2,0 0,-2z M46,48l2,0 0,2 -2,0 0,-2z M48,48l2,0 0,2 -2,0 0,-2z M8,50l2,0 0,2 -2,0 0,-2z M12,50l2,0 0,2 -2,0 0,-2z M14,50l2,0 0,2 -2,0 0,-2z M16,50l2,0 0,2 -2,0 0,-2z M20,50l2,0 0,2 -2,0 0,-2z M24,50l2,0 0,2 -2,0 0,-2z M26,50l2,0 0,2 -2,0 0,-2z M30,50l2,0 0,2 -2,0 0,-2z M32,50l2,0 0,2 -2,0 0,-2z M42,50l2,0 0,2 -2,0 0,-2z M44,50l2,0 0,2 -2,0 0,-2z M54,50l2,0 0,2 -2,0 0,-2z M56,50l2,0 0,2 -2,0 0,-2z M8,52l2,0 0,2 -2,0 0,-2z M12,52l2,0 0,2 -2,0 0,-2z M14,52l2,0 0,2 -2,0 0,-2z M16,52l2,0 0,2 -2,0 0,-2z M20,52l2,0 0,2 -2,0 0,-2z M26,52l2,0 0,2 -2,0 0,-2z M30,52l2,0 0,2 -2,0 0,-2z M32,52l2,0 0,2 -2,0 0,-2z M38,52l2,0 0,2 -2,0 0,-2z M48,52l2,0 0,2 -2,0 0,-2z M50,52l2,0 0,2 -2,0 0,-2z M52,52l2,0 0,2 -2,0 0,-2z M54,52l2,0 0,2 -2,0 0,-2z M56,52l2,0 0,2 -2,0 0,-2z M8,54l2,0 0,2 -2,0 0,-2z M20,54l2,0 0,2 -2,0 0,-2z M24,54l2,0 0,2 -2,0 0,-2z M26,54l2,0 0,2 -2,0 0,-2z M32,54l2,0 0,2 -2,0 0,-2z M36,54l2,0 0,2 -2,0 0,-2z M38,54l2,0 0,2 -2,0 0,-2z M44,54l2,0 0,2 -2,0 0,-2z M46,54l2,0 0,2 -2,0 0,-2z M48,54l2,0 0,2 -2,0 0,-2z M52,54l2,0 0,2 -2,0 0,-2z M54,54l2,0 0,2 -2,0 0,-2z M56,54l2,0 0,2 -2,0 0,-2z M8,56l2,0 0,2 -2,0 0,-2z M10,56l2,0 0,2 -2,0 0,-2z M12,56l2,0 0,2 -2,0 0,-2z M14,56l2,0 0,2 -2,0 0,-2z M16,56l2,0 0,2 -2,0 0,-2z M18,56l2,0 0,2 -2,0 0,-2z M20,56l2,0 0,2 -2,0 0,-2z M24,56l2,0 0,2 -2,0 0,-2z M28,56l2,0 0,2 -2,0 0,-2z M30,56l2,0 0,2 -2,0 0,-2z M32,56l2,0 0,2 -2,0 0,-2z M40,56l2,0 0,2 -2,0 0,-2z M42,56l2,0 0,2 -2,0 0,-2z M44,56l2,0 0,2 -2,0 0,-2z M50,56l2,0 0,2 -2,0 0,-2z M56,56l2,0 0,2 -2,0 0,-2z " stroke="transparent" fill="#9fa7c7" transform="matrix(1, 0, 0, 1, 347.28925, 315.212323)"/>
  <path d="M 204.526 337.775 C 204.526 326.718 196.79 321.605 184.936 321.605 L 163.719 321.605 L 163.719 371.177 L 176.502 371.177 L 176.502 353.978 L 184.936 353.978 C 196.79 353.978 204.526 348.831 204.526 337.775 Z M 191.344 337.775 C 191.344 342.357 188.389 344.714 183.575 344.714 L 176.502 344.714 L 176.502 330.868 L 183.575 330.868 C 188.389 330.868 191.344 333.193 191.344 337.775 Z M 198.055 321.605 L 198.055 371.177 L 210.838 371.177 L 210.838 321.605 Z M 207.848 321.605 L 207.848 371.177 L 243.077 371.177 L 243.077 361.515 L 220.631 361.515 L 220.631 350.159 L 241.051 350.159 L 241.051 340.497 L 220.631 340.497 L 220.631 331.267 L 242.346 331.267 L 242.346 321.605 Z M 232.892 321.605 L 232.892 331.267 L 249.36 331.267 L 249.36 371.177 L 262.144 371.177 L 262.144 331.267 L 278.579 331.267 L 278.579 321.605 Z M 295.351 337.177 C 295.351 341.394 293.558 343.585 287.847 343.585 L 282.468 343.585 L 282.468 330.868 L 287.847 330.868 C 292.728 330.868 295.351 332.329 295.351 337.177 Z M 308.134 335.284 C 308.134 327.083 303.851 321.605 289.208 321.605 L 269.685 321.605 L 269.685 371.177 L 282.468 371.177 L 282.468 352.417 L 286.087 352.417 C 290.636 352.417 292.628 354.443 294.786 358.859 L 300.829 371.177 L 314.443 371.177 L 307.503 357.099 C 305.279 352.65 302.788 348.964 298.605 348.001 C 303.818 346.374 308.134 342.921 308.134 335.284 Z M 393.053 362.876 C 383.657 362.876 378.377 356.435 378.377 346.441 C 378.377 336.413 383.657 329.972 393.053 329.972 C 398.764 329.972 403.213 331.865 407.33 334.654 L 407.33 324.394 C 401.918 321.572 396.606 320.708 392.024 320.708 C 375.389 320.708 365.162 330.536 365.162 346.441 C 365.162 362.312 375.422 372.14 392.024 372.14 C 398.133 372.14 403.18 370.613 407.33 368.454 L 407.33 358.195 C 403.645 360.718 399.162 362.876 393.053 362.876 Z M 402.416 321.605 L 402.416 371.177 L 415.199 371.177 L 415.199 350.159 L 434.059 350.159 L 434.059 371.177 L 446.842 371.177 L 446.842 321.605 L 434.059 321.605 L 434.059 340.497 L 415.199 340.497 L 415.199 321.605 Z M 473.911 362.146 L 477.032 371.177 L 489.881 371.177 L 471.52 321.605 L 456.28 321.605 L 437.918 371.177 L 450.768 371.177 L 453.922 362.146 Z M 457.11 352.948 L 463.916 333.226 L 470.69 352.948 Z" transform="matrix(1.018329, 0, 0, 1, 34.530453, 1.011265)" style="fill: rgb(30, 35, 50); text-transform: capitalize; white-space: pre;"/>
</svg>